<?xml version="1.0" encoding="utf-8"?>
<!-- Uploaded to: SVG Repo, www.svgrepo.com, Generator: SVG Repo Mixer Tools -->
<svg width="800px" height="800px" viewBox="0 0 1024 1024" class="icon"  version="1.1" xmlns="http://www.w3.org/2000/svg"><path d="M451.28872 194.781896h475.401219c21.467804 0 38.87283 17.21868 38.87283 38.455085v554.961205c0 21.241525-17.405027 38.454061-38.87283 38.454061h-796.726127c-21.467804 0-38.874878-17.212536-38.874878-38.454061V233.236981c0-21.236406 17.407074-38.455085 38.874878-38.455085h321.324908z" fill="#DCE5F7" /><path d="M926.689939 220.725103c7.129314 0 12.929624 5.611915 12.929624 12.510855v554.961204c0 6.897915-5.80031 12.509831-12.929624 12.509831h-796.726127c-7.130337 0-12.930648-5.611915-12.930648-12.509831V233.236981c0-6.898939 5.80031-12.510855 12.930648-12.510854h796.726127m0-25.945254h-796.726127c-21.467804 0-38.874878 17.21868-38.874878 38.455085v554.961204c0 21.241525 17.406051 38.454061 38.874878 38.454061h796.726127c21.467804 0 38.87283-17.212536 38.87283-38.454061V233.236981c0-21.237429-17.405027-38.456109-38.87283-38.456108z" fill="#4E6DC4" /><path d="M78.116307 374.510631h584.468555v272.411858H78.116307z" fill="#FFFFFF" /><path d="M662.591006 659.889996H78.117331c-7.170269 0-12.971603-5.802358-12.971603-12.971603V374.506535c0-7.170269 5.802358-12.971603 12.971603-12.971603h584.473675c7.170269 0 12.971603 5.802358 12.971603 12.971603v272.411858c0.001024 7.170269-5.801334 12.971603-12.971603 12.971603z m-571.502072-25.943206h558.530469V387.479162H91.088934v246.467628z" fill="#4E6DC4" /><path d="M517.51567 510.716048m-55.885709 0a55.885709 55.885709 0 1 0 111.771418 0 55.885709 55.885709 0 1 0-111.771418 0Z" fill="#DCE5F7" /><path d="M517.517718 579.575408c-37.965668 0-68.863455-30.896764-68.863455-68.863456s30.896764-68.850145 68.863455-68.850145 68.850145 30.884477 68.850145 68.850145-30.883453 68.863455-68.850145 68.863456z m0-111.76937c-23.664038 0-42.919225 19.242901-42.919225 42.905914 0 23.664038 19.255187 42.919225 42.919225 42.919225s42.905915-19.255187 42.905915-42.919225c0.001024-23.663014-19.241877-42.905915-42.905915-42.905914z" fill="#4E6DC4" /><path d="M892.166573 732.643192c0 10.372982-8.40917 18.783176-18.783176 18.783176-10.372982 0-18.783176-8.40917-18.783176-18.783176V279.125474c0-10.372982 8.40917-18.783176 18.783176-18.783176 10.372982 0 18.783176 8.40917 18.783176 18.783176v453.517718z" fill="#4E6DC4" /></svg>